<svg width="57" height="136" viewBox="0 0 57 136" fill="none" xmlns="http://www.w3.org/2000/svg">
<path d="M2.91937 52.7672C3.99288 40.6386 52.5084 41.525 53.8347 52.7672M2 52C13.5605 62.9414 49.8347 60.5479 55 52" stroke="black" stroke-width="3"/>
<path d="M3.83875 52.4176C3.83875 52.4176 6.52587 116.976 8.48015 126.606C10.4344 136.236 49.2756 136.236 50.2528 126.606C51.2299 116.976 54.1613 52.4176 54.1613 52.4176" stroke="black" stroke-width="3"/>
<path d="M29.2419 50.6323C29.2419 50.6323 28.2742 40.2773 27.5484 37.7779" stroke="black" stroke-width="3"/>
<path d="M29.2419 1.35706C20.2112 25.1666 19.5763 33.6274 28.0322 38.1349" stroke="black" stroke-width="3"/>
<path d="M29.2493 1C30.2212 16.568 41.1553 39.5493 27.5484 38.0666" stroke="black" stroke-width="3"/>
<path d="M27.5484 19.5675C25.5602 30.766 25.6664 34.4495 27.5484 37.4208" stroke="black" stroke-width="3"/>
<path d="M27.5484 19.5675C31.3159 29.9716 31.5215 34.0679 27.5484 37.4208" stroke="black" stroke-width="3"/>
<path d="M27.5484 29.5653C28.0917 32.0317 28.2881 33.5896 27.5484 38.1349" stroke="black" stroke-width="3"/>
</svg>
